<?xml version="1.0" encoding="UTF-8"?>
<svg version="1.1" xmlns="http://www.w3.org/2000/svg" width="16" height="16">
<path d="M0 0 C0.99 0.33 1.98 0.66 3 1 C3.6875 3.0625 3.6875 3.0625 4 5 C5.65 4.67 7.3 4.34 9 4 C9.4247346 8.3322929 9.47048413 10.34962488 6.875 13.9375 C4 16 4 16 0.9375 16.5625 C-2.61734581 15.88178485 -3.777046 14.79927541 -6 12 C-7.35439668 9.29120665 -7.06501451 6.99066732 -7 4 C-4.525 4.495 -4.525 4.495 -2 5 C-1.34 3.35 -0.68 1.7 0 0 Z M0 3 C-0.33 4.32 -0.66 5.64 -1 7 C0.32 7 1.64 7 3 7 C2.67 5.68 2.34 4.36 2 3 C1.34 3 0.68 3 0 3 Z M-5 7 C-4.65555119 9.47266765 -4.65555119 9.47266765 -4 12 C-3.34 12.33 -2.68 12.66 -2 13 C-2 11.35 -2 9.7 -2 8 C-2.99 7.67 -3.98 7.34 -5 7 Z M5 7 C3.70366379 8.06645115 3.70366379 8.06645115 3.9375 10.5625 C3.958125 11.366875 3.97875 12.17125 4 13 C5.56249809 11.68798827 5.56249809 11.68798827 7 10 C7 9.01 7 8.02 7 7 C6.34 7 5.68 7 5 7 Z " fill="#70AE84" transform="translate(7,0)"/>
</svg>
